<svg class="review-helpful-icon thumbs-empty" xmlns="http://www.w3.org/2000/svg" width="24" height="23.455" viewBox="0 0 24 23.455"><defs><style>.thumbs-path{fill:#951a1d;}</style></defs><g transform="translate(-6 -5.993)"><path class="thumbs-path" d="M19.091,5.993a1.8,1.8,0,0,0-1.9,1.253.541.541,0,0,0-.008.111v2.864l-3,6.257v-.128a.567.567,0,0,0-.545-.546H8.727A2.729,2.729,0,0,0,6,18.516v8.209a2.841,2.841,0,0,0,.818,2.029,2.619,2.619,0,0,0,1.909.691h2.727a2.5,2.5,0,0,0,2.054-.818,2.723,2.723,0,0,0,.5-.955,3.944,3.944,0,0,0,.537.2,8.161,8.161,0,0,0,1.517.213h9.571a.719.719,0,0,0,.111-.008,3.426,3.426,0,0,0,1.449-.707,2.331,2.331,0,0,0,.895-1.424,2.69,2.69,0,0,0-.281-1.449,2.531,2.531,0,0,0,.477-.307,1.817,1.817,0,0,0,.622-1.253q0-.009,0-.017a3.269,3.269,0,0,0-.136-1.1,2.572,2.572,0,0,0,.673-.478A2.012,2.012,0,0,0,30,19.905v-.017a2.236,2.236,0,0,0-.486-1.5,1.69,1.69,0,0,0-.239-.2,1.492,1.492,0,0,0,.239-.2A2.554,2.554,0,0,0,30,16.368v-.017a2.408,2.408,0,0,0-2.727-2.182H21.392a33.974,33.974,0,0,0,.7-4.322c0-.011,0-.023,0-.034.034-2.438-1.508-3.743-2.974-3.819h-.025Zm-.017,1.091c.9.05,1.939.714,1.926,2.685,0,.013,0,.021,0,.034-.115,1.667-.532,3.163-.809,4.825a.57.57,0,0,0,.537.631H27.3c1.2-.049,1.621.6,1.611,1.083v.017a1.336,1.336,0,0,1-.256.946,3.909,3.909,0,0,1-.631.529.575.575,0,0,0,.128.929,1.436,1.436,0,0,1,.537.341,1.048,1.048,0,0,1,.221.784q0,.013,0,.025a.814.814,0,0,1-.247.665,2.066,2.066,0,0,1-.758.443.569.569,0,0,0-.3.759,1.606,1.606,0,0,1,.213,1.083c0,.008,0,.008,0,.017a.588.588,0,0,1-.239.477,2.913,2.913,0,0,1-.775.392.575.575,0,0,0-.154.938A1.247,1.247,0,0,1,27,25.839a1.386,1.386,0,0,1-.494.673,2.5,2.5,0,0,1-.963.478H16.091a7.314,7.314,0,0,1-1.279-.179,2.411,2.411,0,0,1-.537-.2.355.355,0,0,1-.094-.059V18l.571-.384a.55.55,0,0,0,.2-.213l3.273-6.82a.55.55,0,0,0,.051-.239v-2.9c.024-.1.164-.357.8-.367ZM8.71,16.9h4.381c0,3.371,0,6.9,0,9.82a2.084,2.084,0,0,1-.418,1.2,1.289,1.289,0,0,1-1.185.435H8.71a1.522,1.522,0,0,1-1.142-.392,1.708,1.708,0,0,1-.477-1.244V18.558A1.577,1.577,0,0,1,8.71,16.9Z"/><path class="a" d="M17.535,70.982a1.535,1.535,0,1,0,1.535,1.535,1.545,1.545,0,0,0-1.535-1.535Zm0,1.228a.307.307,0,1,1-.307.307A.3.3,0,0,1,17.535,72.21Z" transform="translate(-6.93 -47.986)"/></g></svg>