<svg class="review-helpful-icon thumbs-filled" xmlns="http://www.w3.org/2000/svg" width="24" height="23.455" viewBox="0 0 30 29.318"><defs><style>.thumbs-filled-path{fill:#666;}.thumbs-filled-path-2{fill:#fff;}</style></defs><g transform="translate(-6 -5.993)"><path class="thumbs-filled-path-1" d="M22.364,5.993a2.252,2.252,0,0,0-2.376,1.566.676.676,0,0,0-.011.139v3.58L16.227,19.1c6.136,5.716-.325-.842-.682-.842H9.409A3.412,3.412,0,0,0,6,21.647V31.908a3.551,3.551,0,0,0,1.023,2.536,3.274,3.274,0,0,0,2.386.863h3.409a3.124,3.124,0,0,0,2.567-1.023,3.4,3.4,0,0,0,.629-1.194,4.93,4.93,0,0,0,.671.245,10.2,10.2,0,0,0,1.9.266H30.545a.9.9,0,0,0,.139-.011,4.283,4.283,0,0,0,1.811-.884,2.914,2.914,0,0,0,1.119-1.78,3.362,3.362,0,0,0-.351-1.812,3.164,3.164,0,0,0,.6-.384,2.272,2.272,0,0,0,.778-1.566q0-.011,0-.021a4.086,4.086,0,0,0-.17-1.375,3.215,3.215,0,0,0,.842-.6A2.515,2.515,0,0,0,36,23.383v-.021a2.8,2.8,0,0,0-.607-1.875,2.113,2.113,0,0,0-.3-.245,1.865,1.865,0,0,0,.3-.256A3.193,3.193,0,0,0,36,18.961V18.94c.017-1.456-1.371-2.8-3.409-2.728H25.24a42.467,42.467,0,0,0,.873-5.4c0-.014,0-.028,0-.043.042-3.047-1.885-4.679-3.718-4.774h-.032Z"/><path class="thumbs-filled-path-2" d="M17.535,70.982a1.535,1.535,0,1,0,1.535,1.535,1.545,1.545,0,0,0-1.535-1.535Z" transform="translate(-6.93 -42.122)"/></g></svg>
