<svg width="50" height="44" viewBox="0 0 50 44" fill="none" xmlns="http://www.w3.org/2000/svg">
<path d="M0 37.6784H0.979211L2.13342 40.7458C2.20848 40.9478 2.2716 41.125 2.32324 41.277C2.3744 41.4294 2.41982 41.5719 2.45855 41.7043C2.55561 41.3832 2.65697 41.0693 2.76264 40.762C2.7765 40.7234 2.78607 40.6972 2.7918 40.6829L4.01677 37.4368L5.30868 40.7449C5.36988 40.9054 5.42726 41.0659 5.48176 41.2265C5.53579 41.387 5.58648 41.549 5.63381 41.7119C5.66154 41.5876 5.69884 41.4504 5.74617 41.3013C5.79351 41.1517 5.85471 40.975 5.92929 40.7701L7.07537 37.6779H8.06271L5.70027 43.991L4.30843 40.5262C4.24723 40.3714 4.19177 40.2227 4.14157 40.0798C4.09136 39.9374 4.0469 39.8026 4.00817 39.6749C3.96083 39.8383 3.9135 39.9912 3.86664 40.1337C3.81931 40.2761 3.77101 40.4123 3.72081 40.5424L2.35431 43.9919L0 37.6784Z" fill="#403F41"/>
<path d="M8.62646 43.7549V37.6782H9.61811V43.7549H8.62646Z" fill="#403F41"/>
<path d="M10.8808 42.5389L11.6726 42.1735C11.7476 42.4445 11.8849 42.6518 12.0852 42.7942C12.2851 42.9366 12.5409 43.0081 12.8521 43.0081C13.1467 43.0081 13.3805 42.9266 13.554 42.7632C13.7276 42.5998 13.8146 42.3812 13.8146 42.1073C13.8146 41.7504 13.5172 41.4322 12.9229 41.1526C12.8397 41.1111 12.7756 41.0806 12.7312 41.0611C12.0589 40.7348 11.6109 40.4394 11.3871 40.175C11.1634 39.9106 11.0515 39.5876 11.0515 39.2061C11.0515 38.7106 11.2203 38.3095 11.5578 38.0022C11.8954 37.695 12.3377 37.5416 12.8851 37.5416C13.335 37.5416 13.7113 37.6283 14.0145 37.8012C14.3171 37.9741 14.527 38.2223 14.6437 38.5463L13.8686 38.9445C13.7462 38.7535 13.6124 38.6139 13.4665 38.5253C13.3207 38.4367 13.1534 38.3924 12.9645 38.3924C12.6977 38.3924 12.4859 38.4615 12.3291 38.6001C12.1722 38.7387 12.0938 38.924 12.0938 39.156C12.0938 39.5214 12.4381 39.8616 13.1271 40.1769C13.1796 40.2017 13.2212 40.2212 13.2518 40.2351C13.8548 40.5118 14.2684 40.7824 14.4936 41.0463C14.7188 41.3103 14.8311 41.6404 14.8311 42.0363C14.8311 42.6117 14.6489 43.0691 14.2851 43.4083C13.9212 43.7475 13.4292 43.9166 12.8101 43.9166C12.2903 43.9166 11.8648 43.7975 11.533 43.5598C11.2011 43.322 10.9836 42.9819 10.8808 42.5389Z" fill="#403F41"/>
<path d="M15.8295 43.7549V37.6782H17.1668C18.036 37.6782 18.648 37.722 19.0023 37.8087C19.3566 37.8959 19.6669 38.0416 19.9337 38.2465C20.2866 38.5147 20.5539 38.8596 20.736 39.2803C20.9177 39.7009 21.0091 40.1811 21.0091 40.7204C21.0091 41.2601 20.9182 41.7379 20.736 42.1543C20.5539 42.5707 20.2866 42.9146 19.9337 43.1857C19.6669 43.3905 19.3633 43.5363 19.0234 43.6235C18.6829 43.7106 18.1532 43.754 17.4336 43.754H17.1668H15.8295V43.7549ZM16.8211 42.8627H17.6545C18.113 42.8627 18.4568 42.8322 18.6858 42.7712C18.9148 42.7102 19.1142 42.6078 19.284 42.4639C19.5144 42.2677 19.6875 42.0233 19.8027 41.7313C19.918 41.4392 19.9758 41.0996 19.9758 40.7123C19.9758 40.325 19.918 39.9853 19.8027 39.6933C19.6875 39.4013 19.5144 39.1573 19.284 38.9606C19.1118 38.8167 18.9053 38.7143 18.6653 38.6533C18.4248 38.5923 18.0494 38.5619 17.5383 38.5619H17.1797H16.8216V42.8627H16.8211Z" fill="#403F41"/>
<path d="M27.3605 40.7544C27.3495 40.7072 27.3314 40.5772 27.3065 40.3642C27.284 40.187 27.2649 40.0403 27.2482 39.9241C27.2233 40.0627 27.1879 40.2008 27.142 40.339C27.0961 40.4776 27.0383 40.6186 26.9689 40.7625L25.3729 44L23.7769 40.6958C23.7105 40.5605 23.6526 40.429 23.6039 40.3014C23.5551 40.1742 23.513 40.0484 23.4767 39.9236C23.4738 40.0508 23.4633 40.1846 23.4456 40.3242C23.4274 40.4638 23.4007 40.6101 23.3643 40.762L22.7102 43.7547H21.7975L23.239 37.4207L25.0392 41.256C25.0669 41.317 25.1095 41.418 25.1664 41.559C25.2233 41.7 25.2921 41.8744 25.3725 42.0821C25.4308 41.9077 25.5226 41.6862 25.6474 41.418C25.6809 41.3461 25.7057 41.2908 25.7225 41.2518L27.481 37.4207L28.9561 43.7547H28.0352L27.3605 40.7544Z" fill="#403F41"/>
<path d="M29.5604 43.755V37.6782H31.2229V42.3354H33.2898V43.755H29.5604Z" fill="#951A1D"/>
<path d="M33.4366 43.755L35.5409 37.6782H37.6241L39.7327 43.755H38.0783L37.7699 42.6674H35.4075L35.091 43.755H33.4366ZM35.7661 41.4846H37.4204L36.7993 39.4799C36.7797 39.4189 36.7534 39.3208 36.72 39.185C36.6865 39.0493 36.6435 38.8754 36.5909 38.662C36.5545 38.8115 36.5192 38.954 36.4847 39.0893C36.4498 39.225 36.4144 39.3551 36.3786 39.4794L35.7661 41.4846Z" fill="#951A1D"/>
<path d="M40.0688 43.755V37.6782H41.7399C42.4288 37.6782 42.9098 37.7006 43.1838 37.7444C43.4573 37.7887 43.693 37.865 43.89 37.9726C44.1152 38.097 44.2864 38.2637 44.4045 38.4728C44.5226 38.682 44.5814 38.923 44.5814 39.1969C44.5814 39.5428 44.4934 39.8177 44.317 40.0206C44.1405 40.224 43.8594 40.3784 43.4731 40.4832C43.9063 40.5165 44.2453 40.668 44.4896 40.9377C44.7339 41.2073 44.8563 41.5679 44.8563 42.0191C44.8563 42.343 44.7875 42.6279 44.6502 42.8742C44.5125 43.1205 44.316 43.3115 44.0607 43.4468C43.8522 43.5573 43.5955 43.6364 43.29 43.6836C42.9844 43.7307 42.4843 43.7541 41.7901 43.7541H40.0688V43.755ZM41.6103 40.1068H41.9435C42.3547 40.1068 42.6368 40.0621 42.7893 39.972C42.9419 39.882 43.0184 39.7267 43.0184 39.5052C43.0184 39.2755 42.9467 39.1145 42.8037 39.0216C42.6607 38.9287 42.382 38.8825 41.9684 38.8825H41.6103V40.1068ZM41.6103 42.514H42.1936C42.5881 42.514 42.8673 42.465 43.0313 42.3668C43.1953 42.2687 43.277 42.1048 43.277 41.8747C43.277 41.6203 43.202 41.4422 43.0518 41.3412C42.9017 41.2402 42.6239 41.1897 42.2185 41.1897H41.6103V42.514Z" fill="#951A1D"/>
<path d="M46.2467 41.7919C46.4939 42.0716 46.7377 42.2802 46.9777 42.4189C47.2178 42.5575 47.4578 42.6266 47.6964 42.6266C47.9187 42.6266 48.1014 42.567 48.2443 42.4479C48.3873 42.3288 48.459 42.1783 48.459 41.9953C48.459 41.7934 48.3973 41.6376 48.2735 41.5285C48.1496 41.4194 47.8699 41.3065 47.4339 41.1903C46.8367 41.0297 46.4145 40.8211 46.1673 40.5633C45.9201 40.3061 45.7963 39.9531 45.7963 39.5048C45.7963 38.9236 45.9914 38.4501 46.3815 38.0833C46.7717 37.7164 47.278 37.5335 47.9005 37.5335C48.2367 37.5335 48.5556 37.5788 48.8568 37.6683C49.158 37.7584 49.4435 37.8946 49.7131 38.0771L49.1924 39.2685C49.0036 39.108 48.8099 38.987 48.611 38.9055C48.4126 38.824 48.2156 38.7831 48.0215 38.7831C47.8216 38.7831 47.6591 38.8307 47.5338 38.9265C47.409 39.0217 47.3464 39.1442 47.3464 39.2938C47.3464 39.4462 47.4014 39.5677 47.5109 39.6591C47.6204 39.7506 47.8322 39.8378 48.1463 39.9207L48.2214 39.9416C48.8994 40.1241 49.345 40.3251 49.5587 40.5433C49.7031 40.6929 49.8131 40.872 49.8876 41.0807C49.9627 41.2898 50 41.5213 50 41.7757C50 42.4208 49.7877 42.9386 49.3627 43.3302C48.9376 43.7218 48.371 43.9176 47.6624 43.9176C47.2374 43.9176 46.8506 43.8456 46.502 43.7018C46.1535 43.5579 45.8178 43.3326 45.4955 43.0253L46.2467 41.7919Z" fill="#951A1D"/>
<path fill-rule="evenodd" clip-rule="evenodd" d="M25.1023 9.65921L13.6611 21.2616L25.1018 32.6577L36.5421 21.2616L25.1023 9.65921ZM25.1023 16.6845L20.7136 21.093L25.1023 25.4462L29.4906 21.093L25.1023 16.6845Z" fill="#403F41"/>
<path fill-rule="evenodd" clip-rule="evenodd" d="M25.121 32.7139L0.776001 8.46394L4.33951 4.91391L28.684 29.1639L25.121 32.7139Z" fill="#403F41"/>
<path fill-rule="evenodd" clip-rule="evenodd" d="M25.1392 32.6391L49.465 8.40726L45.9015 4.83865L21.5575 29.0896L25.1392 32.6391Z" fill="#403F41"/>
<path fill-rule="evenodd" clip-rule="evenodd" d="M25.1391 0C27.4084 0 29.2286 1.83123 29.2286 4.07358C29.2286 6.33404 27.4084 8.14573 25.1391 8.14573C22.8881 8.14573 21.0502 6.33404 21.0502 4.07358C21.0502 1.83123 22.8881 0 25.1391 0Z" fill="#951A1D"/>
</svg>
