<?xml version="1.0" encoding="utf-8"?>
<!-- Generator: Adobe Illustrator 24.1.1, SVG Export Plug-In . SVG Version: 6.00 Build 0)  -->
<svg height="350px" version="1.1" id="Layer_1" xmlns="http://www.w3.org/2000/svg" xmlns:xlink="http://www.w3.org/1999/xlink" x="0px" y="0px"
	 viewBox="0 0 138.3 124.5" style="enable-background:new 0 0 138.3 124.5;" xml:space="preserve">
<style type="text/css">
	.st0{display:none;}
	.st1{display:inline;}
	.st2{display:inline;fill:none;stroke:#DB2B42;stroke-miterlimit:10;}
	.st3{display:inline;fill:none;stroke:#8AD5DD;stroke-miterlimit:10;}
	.st4{display:inline;fill:none;stroke:#E0E0E0;stroke-miterlimit:10;}
	.st5{display:inline;fill:none;stroke:#000000;stroke-miterlimit:10;}
	.st6{fill:#333333;}
	.st7{fill:none;stroke:#333333;stroke-width:2;stroke-miterlimit:10;}
</style>
<g class="st0">
	<rect x="-28.1" y="-28.1" class="st1" width="824.6" height="414.1"/>
</g>
<g class="st0">
	<circle class="st1" cx="32" cy="32" r="32"/>
	<polyline class="st1" points="50.7,51.2 50.7,11.1 16.7,11.1 16.7,56.4 45.5,56.4 45.5,56.4 50.7,51.2 	"/>
	<polygon class="st1" points="43.8,54.7 15,54.7 15,9.3 49,9.3 49,49.5 	"/>
	<path class="st1" d="M25.4,17.1c-3.6,0-6.5,2.9-6.5,6.5s2.9,6.5,6.5,6.5s6.5-2.9,6.5-6.5h-6.5V17.1z"/>
	<path class="st1" d="M26.1,16.4v6.5h6.5C32.5,19.3,29.6,16.4,26.1,16.4z"/>
	<polygon class="st1" points="25.6,34.2 22.4,38.1 21,36.8 20.1,37.7 22.5,40 26.6,35 	"/>
	<polygon class="st1" points="25.6,41.8 22.4,45.7 21,44.3 20.1,45.3 22.5,47.6 26.6,42.6 	"/>
	<line class="st2" x1="35.3" y1="26.7" x2="35.3" y2="29"/>
	<line class="st3" x1="37.3" y1="21.4" x2="37.3" y2="29"/>
	<line class="st2" x1="39.3" y1="17.6" x2="39.3" y2="29"/>
	<line class="st3" x1="41.3" y1="21.2" x2="41.3" y2="29"/>
	<line class="st2" x1="43.3" y1="24.9" x2="43.3" y2="29"/>
	<line class="st4" x1="29.1" y1="35.8" x2="43.9" y2="35.8"/>
	<line class="st4" x1="29.1" y1="38.3" x2="43.9" y2="38.3"/>
	<line class="st4" x1="29.1" y1="43.4" x2="43.9" y2="43.4"/>
	<line class="st4" x1="29.1" y1="45.9" x2="43.9" y2="45.9"/>
	<polygon class="st1" points="43.8,54.7 43.8,49.5 49,49.5 	"/>
</g>
<g class="st0">
	<circle class="st1" cx="32" cy="32" r="32"/>
	<polyline class="st1" points="50.7,51.2 50.7,11.1 16.7,11.1 16.7,56.4 45.5,56.4 45.5,56.4 50.7,51.2 	"/>
	<polygon class="st1" points="43.8,54.7 15,54.7 15,9.3 49,9.3 49,49.5 	"/>
	<path class="st1" d="M25.4,17.1c-3.6,0-6.5,2.9-6.5,6.5s2.9,6.5,6.5,6.5s6.5-2.9,6.5-6.5h-6.5V17.1z"/>
	<path class="st1" d="M26.1,16.4v6.5h6.5C32.5,19.3,29.6,16.4,26.1,16.4z"/>
	<polygon class="st1" points="25.6,34.2 22.4,38.1 21,36.8 20.1,37.7 22.5,40 26.6,35 	"/>
	<polygon class="st1" points="25.6,41.8 22.4,45.7 21,44.3 20.1,45.3 22.5,47.6 26.6,42.6 	"/>
	<line class="st5" x1="35.3" y1="26.7" x2="35.3" y2="29"/>
	<line class="st3" x1="37.3" y1="21.4" x2="37.3" y2="29"/>
	<line class="st5" x1="39.3" y1="17.6" x2="39.3" y2="29"/>
	<line class="st3" x1="41.3" y1="21.2" x2="41.3" y2="29"/>
	<line class="st5" x1="43.3" y1="24.9" x2="43.3" y2="29"/>
	<line class="st4" x1="29.1" y1="35.8" x2="43.9" y2="35.8"/>
	<line class="st4" x1="29.1" y1="38.3" x2="43.9" y2="38.3"/>
	<line class="st4" x1="29.1" y1="43.4" x2="43.9" y2="43.4"/>
	<line class="st4" x1="29.1" y1="45.9" x2="43.9" y2="45.9"/>
	<polygon class="st1" points="43.8,54.7 43.8,49.5 49,49.5 	"/>
</g>
<g class="st0">
	<polygon class="st1" points="37,64 -3.6,64 -3.6,0 44.4,0 44.4,56.7 	"/>
	<polygon class="st1" points="11.3,35.1 6.8,40.6 4.9,38.7 3.6,40.1 6.9,43.3 12.7,36.3 	"/>
	<polygon class="st1" points="11.3,45.8 6.8,51.3 4.9,49.4 3.6,50.8 6.9,54 12.7,47 	"/>
	<path class="st1" d="M11,9.4c-5.1,0-9.1,4.1-9.1,9.1s4.1,9.1,9.1,9.1s9.1-4.1,9.1-9.1H11V9.4z"/>
	<path class="st1" d="M12,8.4v9.1h9.1C21.1,12.5,17,8.4,12,8.4z"/>
	<rect x="24.4" y="23" class="st1" width="1.4" height="3.2"/>
	<rect x="27.2" y="15.5" class="st1" width="1.4" height="10.7"/>
	<rect x="30" y="10.1" class="st1" width="1.4" height="16.1"/>
	<rect x="32.8" y="15.2" class="st1" width="1.4" height="11"/>
	<rect x="35.7" y="20.4" class="st1" width="1.4" height="5.8"/>
	<rect x="16.2" y="36.7" class="st1" width="20.9" height="1.4"/>
	<rect x="16.2" y="40.2" class="st1" width="20.9" height="1.4"/>
	<rect x="16.2" y="47.4" class="st1" width="20.9" height="1.4"/>
	<rect x="16.2" y="50.9" class="st1" width="20.9" height="1.4"/>
	<polygon class="st1" points="37,64 37,56.7 44.4,56.7 	"/>
</g>
<g>
	<polygon class="st6" points="53.6,73.2 51.7,71.4 50.4,72.7 53.7,76 59.5,68.9 58.1,67.7 	"/>
	<polygon class="st6" points="53.6,83.9 51.7,82.1 50.4,83.4 53.7,86.7 59.5,79.6 58.1,78.4 	"/>
	<rect x="63" y="69.4" class="st6" width="20.9" height="1.4"/>
	<rect x="63" y="72.9" class="st6" width="20.9" height="1.4"/>
	<rect x="63" y="80.1" class="st6" width="20.9" height="1.4"/>
	<rect x="63" y="83.6" class="st6" width="20.9" height="1.4"/>
	<path class="st6" d="M91.2,89.3V32.7h-48v64h40.7L91.2,89.3z M84,94.5v-4.9H89L84,94.5z M44.6,34.1h45.2v54.1h-7.1v7.1H44.6V34.1z"
		/>
	<path class="st6" d="M57.8,59.8c5.1,0,9.1-4.1,9.1-9.1h-9.1v-9.1c-5.1,0-9.1,4.1-9.1,9.1S52.7,59.8,57.8,59.8z M56.4,43v7.6V52h1.4
		h7.6c-0.7,3.6-3.8,6.3-7.6,6.3c-4.3,0-7.7-3.5-7.7-7.7C50,46.8,52.8,43.7,56.4,43z"/>
	<path class="st6" d="M58.8,40.5v9.1h9.1C67.9,44.6,63.8,40.5,58.8,40.5z M60.2,42c3.2,0.6,5.6,3.1,6.2,6.2h-6.2V42z"/>
	<rect x="71.2" y="55" class="st6" width="1.4" height="3.2"/>
	<rect x="74" y="47.5" class="st6" width="1.4" height="10.7"/>
	<rect x="76.8" y="42.1" class="st6" width="1.4" height="16.1"/>
	<rect x="79.6" y="47.2" class="st6" width="1.4" height="11"/>
	<rect x="82.4" y="52.4" class="st6" width="1.4" height="5.8"/>
</g>
<g class="st0">
	<circle class="st1" cx="32" cy="32" r="32"/>
	<polygon class="st1" points="8.8,0.8 55.5,0.8 55.5,56.1 47.5,63.5 8.8,63.5 	"/>
	<polygon class="st1" points="48.3,56.2 48.4,60.6 11.4,60.6 11.4,3.4 52.6,3.4 52.6,56.2 	"/>
	<path class="st1" d="M54.6,1.4v54.7l-6.5,6.5H9.4V1.4H54.6 M56,0H8v64h40.7l7.3-7.3V0L56,0z"/>
	<polygon class="st1" points="48.9,63.5 47.5,63.5 47.5,55.5 55.5,55.5 55.5,56.9 48.9,56.9 	"/>
	<polygon class="st1" points="22.9,35.1 18.4,40.6 16.5,38.7 15.2,40.1 18.5,43.3 24.3,36.3 	"/>
	<polygon class="st1" points="22.9,45.8 18.4,51.3 16.5,49.4 15.2,50.8 18.5,54 24.3,47 	"/>
	<rect x="27.9" y="36.7" class="st1" width="20.9" height="1.4"/>
	<rect x="27.9" y="40.2" class="st1" width="20.9" height="1.4"/>
	<rect x="27.9" y="47.4" class="st1" width="20.9" height="1.4"/>
	<rect x="27.9" y="50.9" class="st1" width="20.9" height="1.4"/>
	<path class="st1" d="M21.2,10.3V18v1.4h1.4h7.6c-0.7,3.6-3.8,6.3-7.6,6.3c-4.3,0-7.7-3.5-7.7-7.7C14.9,14.2,17.6,11,21.2,10.3
		 M22.6,8.8c-5.1,0-9.1,4.1-9.1,9.1s4.1,9.1,9.1,9.1s9.1-4.1,9.1-9.1h-9.1L22.6,8.8L22.6,8.8z"/>
	<path class="st1" d="M25,9.4c3.2,0.6,5.6,3.1,6.2,6.2H25V9.4 M23.6,7.8V17h9.1C32.8,11.9,28.7,7.8,23.6,7.8L23.6,7.8z"/>
	<rect x="36" y="22.3" class="st1" width="1.4" height="3.2"/>
	<rect x="38.8" y="14.8" class="st1" width="1.4" height="10.7"/>
	<rect x="41.6" y="9.4" class="st1" width="1.4" height="16.1"/>
	<rect x="44.5" y="14.5" class="st1" width="1.4" height="11"/>
	<rect x="47.3" y="19.7" class="st1" width="1.4" height="5.8"/>
</g>
<circle class="st7" cx="67.2" cy="64.7" r="44.3"/>
<line class="st7" x1="35.1" y1="34.1" x2="101" y2="93.3"/>
</svg>
